<?xml version="1.0" encoding="UTF-8"?>
<svg version="1.1" xmlns="http://www.w3.org/2000/svg" width="240" height="240">
<path d="M0 0 C79.2 0 158.4 0 240 0 C240 79.2 240 158.4 240 240 C160.8 240 81.6 240 0 240 C0 160.8 0 81.6 0 0 Z " fill="#000000" transform="translate(0,0)"/>
<path d="M0 0 C9.57 0 19.14 0 29 0 C29.48210937 2.56652344 29.96421875 5.13304687 30.4609375 7.77734375 C30.93389215 10.28953601 31.4073521 12.80163255 31.88085938 15.3137207 C32.20723313 17.04669438 32.53308947 18.77976558 32.85839844 20.51293945 C33.32868437 23.01800546 33.80088977 25.52270353 34.2734375 28.02734375 C34.41623138 28.79022202 34.55902527 29.55310028 34.70614624 30.33909607 C35.56680258 34.88900926 36.52869827 39.3984106 37.61099243 43.90113831 C38.24040245 47.2970737 38.12524872 50.55566016 38 54 C41.3 54 44.6 54 48 54 C48.12761719 52.72044434 48.25523438 51.44088867 48.38671875 50.12255859 C48.95293543 45.04185469 49.84321185 40.0563233 50.8125 35.0390625 C50.98628174 34.12667816 51.16006348 33.21429382 51.33911133 32.27426147 C51.70391661 30.36302664 52.07039296 28.45211008 52.43847656 26.54150391 C53.00229118 23.61309983 53.56012918 20.68360226 54.1171875 17.75390625 C54.47360853 15.89055806 54.83036731 14.02727443 55.1875 12.1640625 C55.35419189 11.28908112 55.52088379 10.41409973 55.69262695 9.51260376 C55.84948975 8.701008 56.00635254 7.88941223 56.16796875 7.05322266 C56.30485107 6.34090485 56.4417334 5.62858704 56.58276367 4.89468384 C57 3 57 3 58 0 C66.58 0 75.16 0 84 0 C90.04200087 27.73827672 90.04200087 27.73827672 92.375 40.5 C92.54225586 41.40572754 92.70951172 42.31145508 92.88183594 43.24462891 C93.03168945 44.08171387 93.18154297 44.91879883 93.3359375 45.78125 C93.46532715 46.50376953 93.5947168 47.22628906 93.72802734 47.97070312 C94 50 94 50 94 54 C97.3 54 100.6 54 104 54 C103.94199219 52.96746094 103.88398438 51.93492188 103.82421875 50.87109375 C103.82844515 44.4568345 105.44326172 38.29732371 106.8125 32.0625 C107.36518474 29.47696866 107.91597337 26.89103126 108.46484375 24.3046875 C108.73022949 23.05655273 108.99561523 21.80841797 109.26904297 20.52246094 C110.68306561 13.70832643 111.84557013 6.86244422 113 0 C122.57 0 132.14 0 142 0 C140.87411829 11.25881715 140.87411829 11.25881715 139.73046875 16.5390625 C139.48312988 17.68987305 139.23579102 18.84068359 138.98095703 20.02636719 C138.71911621 21.21391602 138.45727539 22.40146484 138.1875 23.625 C137.92050293 24.85379883 137.65350586 26.08259766 137.37841797 27.34863281 C135.42201342 36.27774319 133.33310912 45.16163368 131 54 C134.63 54 138.26 54 142 54 C142 63.9 142 73.8 142 84 C136.06 84 130.12 84 124 84 C123.8153418 86.15486938 123.8153418 86.15486938 123.62695312 88.35327148 C123.08277123 93.77217812 122.10181242 99.02488313 120.96875 104.34765625 C120.77277222 105.28556503 120.57679443 106.22347382 120.37487793 107.18980408 C119.96387125 109.15074901 119.55030972 111.11116008 119.13427734 113.07104492 C118.49536398 116.08436494 117.86627915 119.09962265 117.23828125 122.11523438 C116.83651307 124.02616277 116.43418971 125.93697454 116.03125 127.84765625 C115.84268433 128.75169693 115.65411865 129.65573761 115.45983887 130.58717346 C115.28295532 131.41571335 115.10607178 132.24425323 114.92382812 133.09790039 C114.76918091 133.82940811 114.61453369 134.56091583 114.4552002 135.31459045 C114 137 114 137 113 138 C111.07332493 138.08748207 109.14348139 138.10697334 107.21484375 138.09765625 C106.04501953 138.09443359 104.87519531 138.09121094 103.66992188 138.08789062 C102.43822266 138.07951172 101.20652344 138.07113281 99.9375 138.0625 C98.08415039 138.05573242 98.08415039 138.05573242 96.19335938 138.04882812 C93.12885883 138.03699608 90.06445279 138.02051173 87 138 C81.17421434 113.26084205 81.17421434 113.26084205 78.6875 100.875 C78.52862305 100.0902832 78.36974609 99.30556641 78.20605469 98.49707031 C77.25669847 93.67934833 76.55866996 88.87868219 76 84 C72.7 84 69.4 84 66 84 C65.87689453 85.11729492 65.75378906 86.23458984 65.62695312 87.38574219 C65.01517415 92.26364921 64.01541359 97.02758156 62.96875 101.828125 C62.67478333 103.19526642 62.67478333 103.19526642 62.37487793 104.59002686 C61.75312946 107.47738813 61.12655925 110.36367932 60.5 113.25 C60.07912653 115.20306026 59.65855077 117.15618469 59.23828125 119.109375 C58.468511 122.67908302 57.6985853 126.24875352 56.92382812 129.81738281 C56.6918573 130.88705292 56.6918573 130.88705292 56.4552002 131.97833252 C56.00159889 133.99289891 55.50083647 135.99665412 55 138 C46.42 138 37.84 138 29 138 C26.37199345 127.69146989 23.90993877 117.3759465 21.70751953 106.96850586 C21.24181768 104.77394178 20.76751725 102.581338 20.29296875 100.38867188 C19.9916709 98.97406827 19.69087023 97.55935865 19.390625 96.14453125 C19.12282227 94.89003174 18.85501953 93.63553223 18.57910156 92.34301758 C18 89 18 89 18 84 C12.06 84 6.12 84 0 84 C0 74.1 0 64.2 0 54 C3.63 54 7.26 54 11 54 C10.75475586 53.04440186 10.50951172 52.08880371 10.25683594 51.10424805 C7.87948786 41.7645496 5.70278726 32.39706067 3.70751953 22.96850586 C3.24181768 20.77394178 2.76751725 18.581338 2.29296875 16.38867188 C1.9916709 14.97406827 1.69087023 13.55935865 1.390625 12.14453125 C1.12282227 10.89003174 0.85501953 9.63553223 0.57910156 8.34301758 C0 5 0 5 0 0 Z " fill="#E20813" transform="translate(49,51)"/>
</svg>
